<svg xmlns="http://www.w3.org/2000/svg" width="542" height="598" viewBox="0 0 542 598" version="1.1">
	<path d="M 242.500 32.554 C 237 33.285, 230.250 34.387, 227.500 35.002 C 224.750 35.618, 220.250 36.493, 217.500 36.947 C 202.691 39.394, 175.098 48.942, 157.584 57.678 C 143.700 64.604, 124.614 76.252, 112.458 85.217 C 99.066 95.094, 72.246 121.710, 62.294 135 C 35.157 171.238, 19.354 208.906, 12.354 254.037 C 9.977 269.358, 9.968 301.586, 12.334 318.763 C 19.641 371.789, 43.854 421.706, 81.009 460.337 C 87.270 466.847, 96.017 475.085, 100.446 478.645 C 116.511 491.553, 140.192 506.439, 157.508 514.514 C 164.790 517.911, 187.355 526.979, 187.690 526.644 C 187.822 526.511, 186.596 519.996, 184.965 512.165 C 183.334 504.334, 182 496.695, 182 495.190 C 182 492.673, 180.969 491.954, 169.168 486.234 C 144.478 474.266, 124.590 460.481, 106.138 442.545 C 72.324 409.676, 51.775 371.336, 42.870 324.500 C 40.164 310.271, 39.168 276.587, 40.995 261.097 C 43.746 237.771, 50.665 215.423, 62.541 191.500 C 79.236 157.872, 101.346 131.480, 132.381 108.136 C 164.199 84.203, 198.815 69.413, 239.570 62.337 C 253.972 59.837, 290.448 59.829, 305.500 62.322 C 381.576 74.925, 448.406 123.086, 482.678 190.004 C 505.018 233.626, 511.286 280.357, 501.426 329.781 C 488.014 397.007, 444.518 452.189, 378.419 485.837 L 366.338 491.986 362.883 508.743 C 360.983 517.959, 359.738 525.635, 360.116 525.800 C 361.237 526.291, 376.625 520.131, 389.500 514.037 C 400.456 508.851, 418.036 498.823, 425.500 493.502 C 446.946 478.214, 466.525 460.231, 479.941 443.500 C 501.921 416.089, 518.593 382.274, 527.354 347.336 C 533.342 323.457, 534.446 313.745, 534.440 285 C 534.434 256.343, 533.652 249.941, 527.048 224.493 C 518.203 190.408, 502.754 159.550, 480.338 131.197 C 471.058 119.458, 450.616 98.934, 439 89.692 C 399.584 58.332, 351.665 38.153, 303.122 32.475 C 287.720 30.673, 256.341 30.714, 242.500 32.554 M 262 103.433 C 244.937 108.188, 232.744 121.937, 229.894 139.634 C 226.107 163.154, 242.555 185.691, 266.799 190.200 C 279.579 192.577, 294.816 187.397, 304.811 177.278 C 328.460 153.335, 318.952 113.787, 287.187 103.976 C 279.883 101.720, 268.989 101.485, 262 103.433 M 160.480 174.870 C 155.936 176.934, 154 180.234, 154 185.912 C 154 190.219, 155.981 193.191, 162.955 199.351 C 165.455 201.559, 172.911 208.795, 179.524 215.432 C 213.108 249.139, 242.055 289.881, 264.602 335.178 L 273.402 352.857 282.197 335.328 C 307.500 284.903, 343.106 236.679, 379 204.222 C 384.847 198.935, 390.546 192.815, 391.860 190.412 C 394.059 186.392, 394.127 185.809, 392.860 181.888 C 390.804 175.524, 387.372 173.500, 378.637 173.500 C 371.972 173.500, 370.602 173.901, 360.464 178.815 C 340.257 188.609, 325.805 199.061, 308.446 216.436 C 295.924 228.969, 283.508 244.578, 277.809 254.953 C 275.989 258.266, 274.275 260.960, 274 260.941 C 273.725 260.921, 271.397 257.664, 268.827 253.702 C 259.410 239.188, 251.269 229.198, 238.035 215.916 C 223.919 201.748, 211.774 192.402, 195.500 183.180 C 178.316 173.443, 168.664 171.153, 160.480 174.870 M 95 203.594 C 87.452 206.864, 83.253 213.092, 78.560 227.980 C 73.657 243.536, 71.727 257.557, 71.674 278 C 71.632 294.326, 71.935 297.935, 74.255 308.709 C 81.984 344.598, 100.090 382.318, 118.353 400.577 C 127.163 409.386, 134.479 414.186, 152.521 422.998 C 169.547 431.314, 177.417 436.454, 183.607 443.302 C 191.863 452.436, 193.015 455.687, 203.527 499.500 C 211.314 531.955, 213.374 538.301, 217.660 543.046 C 223.417 549.418, 238.083 557.397, 247.896 559.496 C 250.899 560.139, 251.229 560.008, 250.754 558.361 C 250.459 557.338, 248.397 550.200, 246.173 542.500 C 239.944 520.935, 236.652 507.066, 230.031 474.500 C 222.825 439.056, 220.479 431.379, 213.803 421.398 C 205.180 408.505, 196.219 402.444, 171.218 392.593 C 162.023 388.970, 151.800 384.276, 148.500 382.162 C 123.989 366.458, 103.184 332.251, 97.049 297.566 C 94.894 285.378, 96.078 265.609, 99.614 254.750 C 102.193 246.831, 102.343 247.090, 106.536 266.700 C 113.608 299.766, 127.316 326.906, 145.525 343.892 C 155.376 353.082, 163.015 357.634, 184.812 367.303 C 208.198 377.678, 217.061 383.021, 227.335 392.937 C 240.168 405.324, 247.823 418.462, 252.427 436 C 254.410 443.555, 267 513.639, 267 517.125 C 267 517.606, 269.871 518, 273.379 518 L 279.758 518 280.790 511.250 C 283.817 491.455, 291.445 450.012, 293.923 439.897 C 298.864 419.731, 307.378 404.489, 320.744 391.880 C 329.850 383.291, 340.779 376.794, 361.002 367.951 C 370.076 363.983, 381.090 358.672, 385.477 356.150 C 411.044 341.449, 430.096 310.258, 439.625 267.500 C 443.760 248.944, 445.033 246.533, 446.885 253.750 C 449.671 264.610, 450.396 270.680, 450.317 282.500 C 450.191 301.491, 446.735 315.148, 436.800 335.922 C 422.188 366.475, 404.674 382.840, 375.375 393.319 C 358.126 399.488, 350.808 403.727, 341.496 412.944 C 329.286 425.029, 326.378 432.374, 318.511 471 C 312.159 502.184, 306.795 523.999, 300.347 544.870 C 297.905 552.774, 296.139 559.472, 296.422 559.756 C 297.558 560.892, 311.696 555.392, 319.355 550.835 C 329.724 544.665, 332.239 541.659, 335.417 531.635 C 337.951 523.643, 339.257 518.550, 348.528 480.516 C 351.106 469.942, 354.592 458.423, 356.398 454.516 C 362.208 441.944, 372.050 433.856, 395 422.790 C 401.875 419.475, 410.644 414.732, 414.486 412.249 C 439.598 396.023, 460.209 359.418, 471.216 311.500 C 474.303 298.060, 474.431 296.639, 474.432 276 C 474.432 256.316, 474.199 253.407, 471.672 241.560 C 466.858 218.996, 461.926 209.235, 453.071 204.750 C 443.480 199.892, 434.343 201.471, 424.414 209.702 C 421.895 211.791, 418.746 215.340, 417.417 217.588 C 414.623 222.313, 414.123 229.410, 416.490 230.734 C 419.410 232.368, 411.209 273.432, 404.969 288.419 C 399.296 302.048, 389.584 314.374, 378.524 321.984 C 369.485 328.202, 345 338.363, 345 335.895 C 345 335.403, 345.380 335, 345.844 335 C 347.272 335, 364.432 322.372, 370.334 316.977 C 373.563 314.027, 377.011 309.633, 378.522 306.544 C 380.823 301.842, 381.007 300.739, 380.071 297.263 C 378.824 292.634, 376.867 290.691, 371.812 289.069 C 366.898 287.492, 362.207 288.445, 352.296 293.031 C 330.587 303.077, 307.488 323.869, 292.661 346.713 C 288.102 353.736, 279.272 370.930, 275.565 380 C 273.767 384.400, 273.710 384.441, 272.972 381.833 C 271.395 376.261, 260.591 356.061, 253.539 345.500 C 237.943 322.144, 219.647 305.354, 198 294.529 C 182.440 286.749, 174.219 286.568, 169.287 293.898 C 164.743 300.650, 167.087 307.452, 177.418 317.500 C 181.376 321.350, 188.527 327.156, 193.308 330.401 C 198.088 333.647, 202 336.431, 202 336.588 C 202 337.488, 183.931 330.545, 177.320 327.104 C 167.018 321.742, 159.250 315.182, 152.329 306 C 141.623 291.796, 137.152 278.547, 131.068 243 C 127.382 221.459, 125.916 215.983, 122.425 210.708 C 117.479 203.234, 103.940 199.722, 95 203.594" stroke="none" fill="#fafafa" fill-rule="evenodd"/>
</svg>